<?xml version="1.0" encoding="UTF-8"?>
<svg width="57px" height="36px" viewBox="0 0 57 36" version="1.1" xmlns="http://www.w3.org/2000/svg" xmlns:xlink="http://www.w3.org/1999/xlink">
    <!-- Generator: Sketch 40.3 (33839) - http://www.bohemiancoding.com/sketch -->
    <title>The end</title>
    <desc>Created with Sketch.</desc>
    <defs>
        <polygon id="path-1" points="0.04275 0.336 56.3494875 0.336 56.3494875 36 0.04275 36"></polygon>
    </defs>
    <g id="Symbols" stroke="none" stroke-width="1" fill="none" fill-rule="evenodd">
        <g id="The-End" transform="translate(-608.000000, -124.000000)">
            <g id="The-end" transform="translate(608.000000, 124.000000)">
                <mask id="mask-2" fill="white">
                    <use xlink:href="#path-1"></use>
                </mask>
                <g id="Clip-2"></g>
                <g id="Group" mask="url(#mask-2)" fill-opacity="0.18" fill="#0E1F2B">
                    <path d="M51.680475,9.39035294 C51.352725,8.96117647 50.9658375,8.57788235 50.531925,8.25317647 C50.9658375,7.92776471 51.352725,7.54517647 51.680475,7.116 C52.008225,7.54517647 52.3951125,7.92776471 52.829025,8.25317647 C52.3951125,8.57788235 52.008225,8.96117647 51.680475,9.39035294 L51.680475,9.39035294 Z M52.8610875,3.62752941 L50.4998625,3.62752941 C50.4998625,5.53270588 48.9352125,7.08352941 47.0100375,7.08352941 L47.0100375,9.42282353 C48.9352125,9.42282353 50.4998625,10.9729412 50.4998625,12.8788235 L52.8610875,12.8788235 C52.8610875,10.9729412 54.42645,9.42282353 56.3494875,9.42282353 L56.3494875,7.08352941 C54.42645,7.08352941 52.8610875,5.53270588 52.8610875,3.62752941 L52.8610875,3.62752941 Z" id="Fill-1"></path>
                    <path d="M48.08235,25.5374118 L48.0745125,25.6969412 C47.9733375,27.7785882 47.704725,29.2567059 46.68585,30.1955294 C45.4582125,31.3291765 43.1397375,32.0611765 40.779225,32.0611765 C37.675575,32.0611765 35.7055125,31.5289412 34.1907375,28.7195294 C32.2164,25.0588235 32.1216375,22.6256471 32.679525,22.1343529 C33.8558625,21.0981176 35.3920125,20.0858824 40.021125,20.0858824 C42.351,20.0858824 47.1995625,20.0858824 47.667675,21.2745882 C48.222,22.6807059 48.177825,23.5764706 48.08235,25.5374118 L48.08235,25.5374118 Z M20.0547375,28.7195294 C18.5399625,31.5289412 16.5706125,32.0611765 13.464825,32.0611765 C11.1057375,32.0611765 8.78655,31.3291765 7.5589125,30.1955294 C6.5400375,29.2567059 6.27285,27.7785882 6.1709625,25.6969412 L6.163125,25.5374118 C6.0669375,23.5757647 6.0227625,22.6807059 6.576375,21.276 C7.0459125,20.0858824 11.894475,20.0858824 14.22435,20.0858824 C18.854175,20.0858824 20.3889,21.0981176 21.56595,22.1343529 C22.123125,22.6256471 22.029075,25.0588235 20.0547375,28.7195294 L20.0547375,28.7195294 Z M54.22695,18.0776471 C54.2262375,18.0748235 54.22695,18.0712941 54.2262375,18.0684706 C54.2262375,18.0677647 54.225525,18.0677647 54.225525,18.0677647 C54.211275,17.9774118 54.1834875,17.8927059 54.1507125,17.8094118 C54.1407375,17.7861176 54.1307625,17.7642353 54.120075,17.7409412 C54.0908625,17.6795294 54.057375,17.6202353 54.0196125,17.5637647 C54.0075,17.544 53.994675,17.5249412 53.9811375,17.5058824 C53.9277,17.4352941 53.8685625,17.3689412 53.803725,17.3103529 C53.7930375,17.3011765 53.78235,17.2955294 53.772375,17.2870588 C53.712525,17.2369412 53.6476875,17.1924706 53.578575,17.1529412 C53.5686,17.148 53.56005,17.1388235 53.550075,17.1331765 C52.871775,16.7689412 41.3599125,10.6030588 33.5893875,6.47223529 C32.4337125,7.06023529 30.8206125,8.02305882 28.931775,9.21811765 C32.2506,11.2567059 36.1657875,13.7872941 39.6727125,16.092 C38.1223125,16.1767059 36.75645,16.3192941 35.81595,16.5049412 C33.3222,16.9990588 31.223175,18.1454118 30.1950375,18.7842353 C29.0379375,19.5042353 28.5634125,19.5592941 28.4451375,19.5592941 L25.8003375,19.5592941 C25.682775,19.5592941 25.20825,19.5042353 24.049725,18.7842353 C23.020875,18.1454118 20.9211375,16.9990588 18.4288125,16.5049412 C17.4897375,16.3192941 16.123875,16.1767059 14.573475,16.092 C18.74445,13.3517647 23.4904125,10.2924706 27.1227375,8.11976471 C29.1277125,6.92047059 30.7921125,5.99294118 31.8309375,5.53905882 C31.92285,5.49952941 32.009775,5.46282353 32.0902875,5.43035294 C33.2253,4.97858824 34.3175625,4.74988235 35.3407125,4.74988235 C37.952025,4.74988235 39.387,6.20964706 39.7653375,6.65788235 C40.514175,7.54376471 41.3307,7.99270588 42.1906875,7.99270588 C43.027875,7.99270588 43.6327875,7.57341176 44.0161125,7.25788235 C44.549775,6.81741176 44.8468875,6.204 44.8540125,5.52917647 C44.8611375,4.77952941 44.509875,4.06305882 43.862925,3.51035294 C41.3898375,1.404 38.684475,0.336 35.8245,0.336 C32.4579375,0.336 29.567325,1.812 27.654975,2.78964706 L27.32865,2.95482353 C27.2680875,2.98588235 27.1982625,3.02258824 27.122025,3.06070588 C27.047925,3.02258824 26.976675,2.98588235 26.9154,2.95482353 L26.5905,2.79035294 C24.6788625,1.812 21.7875375,0.336 18.420975,0.336 C15.561,0.336 12.85635,1.404 10.3789875,3.51317647 C9.7356,4.06305882 9.3843375,4.77952941 9.3914625,5.52917647 C9.397875,6.20470588 9.6949875,6.81811765 10.2293625,7.25788235 C10.611975,7.57341176 11.2176,7.99270588 12.0555,7.99270588 C12.9154875,7.99270588 13.7305875,7.54376471 14.479425,6.65788235 C14.85705,6.20964706 16.2941625,4.74988235 18.905475,4.74988235 C19.9279125,4.74988235 21.0208875,4.97858824 22.1551875,5.43035294 C22.2364125,5.46282353 22.3233375,5.49952941 22.4145375,5.53905882 C14.764425,9.59647059 1.42785,16.7407059 0.6954,17.1331765 C0.6847125,17.1388235 0.6761625,17.148 0.665475,17.1536471 C0.597075,17.1924706 0.53295,17.2369412 0.4738125,17.2863529 C0.463125,17.2948235 0.4524375,17.3011765 0.44175,17.3103529 C0.3762,17.3689412 0.3170625,17.4352941 0.2643375,17.5051765 C0.2508,17.5242353 0.2386875,17.5447059 0.22515,17.5637647 C0.1873875,17.6202353 0.1539,17.6795294 0.1254,17.7409412 C0.1147125,17.7642353 0.104025,17.7861176 0.0947625,17.8094118 C0.0619875,17.8927059 0.0349125,17.9774118 0.0192375,18.0677647 C0.0192375,18.0677647 0.0192375,18.0677647 0.0192375,18.0684706 C0.0178125,18.0712941 0.0192375,18.0748235 0.0178125,18.0776471 C0.007125,18.1468235 0,18.2167059 0,18.2887059 L0,21.5075294 C0,22.0863529 0.3840375,22.5981176 0.944775,22.7647059 C0.9554625,22.7675294 2.0064,23.0957647 2.0064,24.3748235 L2.004975,24.6275294 C1.995,27.0592941 1.9615125,34.4597647 10.3006125,35.7077647 C11.600925,35.9018824 12.8193,36 13.9215375,36 L13.92225,36 C19.760475,36 21.9856125,33.2181176 23.151975,31.1223529 C23.598,30.3211765 23.9799,29.4127059 24.348975,28.5345882 C25.1519625,26.6237647 25.982025,24.6465882 27.1227375,24.6465882 C28.26345,24.6465882 29.0935125,26.6237647 29.8957875,28.5345882 C30.265575,29.4127059 30.6467625,30.3211765 31.0935,31.1237647 C32.25915,33.2181176 34.4842875,36 40.3239375,36 C41.426175,36 42.64455,35.9018824 43.945575,35.7077647 C52.28325,34.4597647 52.2497625,27.0592941 52.239075,24.6275294 L52.2383625,24.3748235 C52.2383625,23.184 53.1403875,22.8197647 53.2999875,22.7647059 C53.860725,22.5981176 54.245475,22.0863529 54.245475,21.5075294 L54.245475,18.2887059 C54.245475,18.2167059 54.23835,18.1468235 54.22695,18.0776471 L54.22695,18.0776471 Z" id="Fill-3"></path>
                </g>
            </g>
        </g>
    </g>
</svg>